<?xml version="1.0" standalone="no"?>
<!DOCTYPE svg PUBLIC "-//W3C//DTD SVG 20010904//EN"
 "http://www.w3.org/TR/2001/REC-SVG-20010904/DTD/svg10.dtd">
<svg version="1.0" xmlns="http://www.w3.org/2000/svg"
 width="965.000000pt" height="965.000000pt" viewBox="0 0 965.000000 965.000000"
 preserveAspectRatio="xMidYMid meet">
<metadata>
Created by potrace 1.11, written by Peter Selinger 2001-2013
</metadata>
<g transform="translate(0.000000,965.000000) scale(0.100000,-0.100000)"
fill="#000000" stroke="none">
<path d="M0 4825 l0 -4825 4825 0 4825 0 0 4825 0 4825 -4825 0 -4825 0 0
-4825z m3460 4380 c330 -50 541 -139 762 -318 108 -87 217 -222 286 -356 53
-102 105 -239 117 -308 4 -24 11 -45 16 -48 4 -3 27 32 50 77 59 118 133 228
226 338 126 147 193 196 309 222 110 26 224 -12 318 -106 102 -102 164 -258
151 -381 -8 -75 -32 -112 -125 -189 -246 -205 -505 -647 -580 -991 -43 -193
-55 -315 -31 -315 16 0 216 143 298 212 121 103 225 178 319 230 43 24 88 50
99 56 39 22 231 100 325 131 144 47 358 90 529 107 136 13 172 13 320 -1 271
-24 350 -47 626 -180 238 -115 405 -234 596 -424 344 -345 525 -708 678 -1356
110 -467 104 -952 -19 -1478 -93 -396 -175 -620 -392 -1067 -219 -452 -439
-814 -657 -1084 -335 -416 -758 -830 -1031 -1011 -119 -79 -346 -193 -495
-250 -111 -43 -184 -64 -275 -80 -74 -13 -96 -13 -165 -1 -170 30 -281 64
-490 149 -247 100 -379 129 -585 130 -74 0 -171 -6 -214 -13 -156 -24 -352
-88 -551 -180 -148 -68 -258 -94 -405 -94 -297 0 -562 124 -910 424 -287 247
-754 843 -1017 1295 -341 587 -593 1255 -673 1783 -49 322 -47 640 5 1007 90
638 344 1150 738 1490 142 123 261 201 432 286 266 131 447 185 738 222 97 12
177 25 177 30 0 32 -193 368 -251 438 -77 90 -278 229 -390 268 -149 53 -369
77 -548 61 -267 -24 -413 -63 -699 -187 -95 -42 -176 -72 -180 -68 -10 10 112
242 199 374 106 162 336 443 381 465 10 5 18 13 18 17 0 10 11 19 143 133 309
263 734 462 1117 522 292 46 502 52 710 19z"/>
<path d="M3060 8984 c-360 -22 -633 -92 -935 -239 -253 -123 -572 -359 -730
-538 -114 -130 -175 -208 -170 -217 3 -5 20 -3 38 5 83 34 363 83 582 101 170
13 497 -38 685 -109 150 -56 296 -157 379 -261 56 -70 160 -249 226 -391 55
-115 140 -236 195 -276 24 -17 82 -49 129 -71 47 -22 94 -44 104 -49 38 -20
175 -30 285 -19 213 20 470 81 490 116 20 36 -91 369 -193 579 l-54 112 -53
11 c-138 30 -219 34 -353 17 -71 -9 -137 -17 -145 -18 -8 -1 -17 3 -20 8 -15
30 276 62 425 47 55 -6 102 -8 104 -6 7 7 -111 177 -190 274 -105 127 -210
215 -269 224 -84 12 -400 -44 -509 -91 -75 -32 -81 -33 -81 -20 0 40 283 130
478 152 39 4 62 11 59 18 -7 22 -223 127 -332 161 -172 54 -257 68 -329 55
-131 -23 -299 -87 -393 -150 -26 -17 -33 -18 -33 -6 0 18 102 85 195 128 l70
32 -35 8 c-74 17 -429 -43 -620 -105 -72 -23 -97 -25 -85 -6 9 15 162 70 320
115 186 53 303 72 518 80 92 4 167 10 166 14 0 8 -111 89 -133 97 -9 3 -16 12
-16 20 0 20 60 -11 146 -77 78 -59 91 -64 181 -80 110 -19 220 -57 361 -125
72 -35 134 -64 137 -64 11 0 4 29 -19 76 -30 61 -56 124 -56 135 0 30 26 -8
93 -138 49 -94 87 -155 104 -167 126 -90 327 -297 443 -460 l35 -48 8 58 c8
65 -6 258 -29 399 -20 118 -21 124 -9 124 29 0 69 -225 89 -499 l14 -195 81
-155 c63 -121 81 -148 81 -125 0 17 5 82 10 146 12 141 -9 405 -40 516 -75
269 -214 511 -353 615 -82 61 -153 108 -164 108 -5 0 -25 9 -44 19 -45 24
-173 67 -254 86 -152 36 -427 58 -585 49z"/>
<path d="M5214 8672 c-28 -10 -61 -24 -73 -32 -21 -15 -21 -16 -6 -102 19
-109 36 -148 80 -193 41 -40 90 -67 155 -85 l45 -13 -29 -10 c-34 -11 -107 4
-168 34 -79 40 -146 135 -164 232 -3 21 -10 37 -14 35 -11 -4 -124 -158 -187
-256 -64 -96 -131 -236 -167 -343 -20 -60 -29 -118 -41 -270 -8 -106 -20 -230
-25 -276 -8 -65 -7 -110 5 -206 20 -162 33 -229 48 -244 21 -20 98 -43 102
-30 2 7 16 71 30 142 72 363 235 696 487 996 54 65 128 142 164 172 36 31 75
69 85 86 19 31 19 33 -2 109 -41 154 -98 224 -209 258 -53 16 -51 16 -116 -4z"/>
<path d="M6451 7220 c-135 -11 -342 -52 -478 -94 -228 -70 -364 -138 -548
-271 -113 -82 -229 -148 -392 -224 -296 -136 -555 -214 -843 -252 -144 -19
-174 -20 -249 -10 -110 16 -131 27 -66 36 155 22 490 118 610 175 22 10 52 24
68 29 15 6 27 14 27 18 0 5 -42 30 -93 57 -50 26 -127 71 -170 98 l-77 51 -43
-17 c-195 -79 -264 -99 -423 -121 -87 -13 -112 -13 -180 -1 -96 17 -93 16
-229 81 -123 58 -224 129 -254 179 -36 57 -50 59 -212 15 -527 -142 -978 -419
-1250 -769 -176 -225 -308 -478 -383 -727 -39 -131 -84 -365 -106 -553 -11
-96 -24 -209 -29 -250 -10 -77 -9 -85 29 -385 20 -156 28 -197 91 -470 166
-723 420 -1314 820 -1905 341 -505 685 -847 1004 -1000 104 -51 169 -71 304
-94 69 -12 93 -12 160 -1 135 24 173 36 276 85 300 143 543 213 787 226 199
10 397 -24 634 -112 200 -73 332 -113 441 -134 l111 -21 100 25 c113 27 145
41 355 144 147 73 267 147 362 226 81 67 303 266 307 275 2 5 58 69 125 142
404 444 616 755 881 1289 121 245 175 361 192 415 7 22 16 45 20 50 14 19 89
222 138 375 121 374 173 638 201 1016 11 140 0 340 -29 520 -37 233 -165 656
-253 836 -118 241 -304 464 -562 673 -169 137 -456 291 -615 330 -177 44 -374
59 -559 45z"/>
</g>
</svg>
